<svg width="17" height="17" fill="none" xmlns="http://www.w3.org/2000/svg"><path d="M8.5 0C3.825 0 0 3.825 0 8.5S3.825 17 8.5 17 17 13.175 17 8.5 13.175 0 8.5 0Zm3.017 11.73L8.05 9.598a.837.837 0 0 1-.408-.723V4.887a.655.655 0 0 1 .647-.638.643.643 0 0 1 .637.638v3.782l3.264 1.964a.651.651 0 0 1 .22.894.653.653 0 0 1-.892.204Z" fill="url(#a)"/><defs><linearGradient id="a" x1="8.5" y1="0" x2="8.5" y2="17" gradientUnits="userSpaceOnUse"><stop stop-color="#FFBF00"/><stop offset="1" stop-color="#F2A60C"/></linearGradient></defs></svg>