<svg width="17" height="17" fill="none" xmlns="http://www.w3.org/2000/svg"><path d="M8.5 0C4.038 0 0 2.782 0 7.084c0 2.748 2.603 5.98 7.799 9.702.196.138.447.214.706.214.26 0 .51-.076.706-.214C14.397 13.063 17 9.832 17 7.084 17 2.782 12.962 0 8.5 0Zm0 8.64c-1.17 0-2.125-.778-2.125-1.729 0-.95.956-1.728 2.125-1.728 1.17 0 2.125.777 2.125 1.728 0 .95-.956 1.728-2.125 1.728Z" fill="url(#a)"/><defs><linearGradient id="a" x1="8.5" y1="0" x2="8.5" y2="17" gradientUnits="userSpaceOnUse"><stop stop-color="#FFBF00"/><stop offset="1" stop-color="#F2A60C"/></linearGradient></defs></svg>