<svg width="32" height="32" fill="none" xmlns="http://www.w3.org/2000/svg"><g clip-path="url(#a)"><path d="M16 9.667A5.332 5.332 0 0 0 10.667 15 5.332 5.332 0 0 0 16 20.333 5.332 5.332 0 0 0 21.334 15 5.332 5.332 0 0 0 16 9.667Zm11.92 4A11.992 11.992 0 0 0 17.333 3.08V1.667c0-.734-.6-1.334-1.333-1.334s-1.333.6-1.333 1.334V3.08A11.992 11.992 0 0 0 4.08 13.667H2.667c-.733 0-1.333.6-1.333 1.333s.6 1.333 1.333 1.333H4.08A11.992 11.992 0 0 0 14.667 26.92v1.413c0 .734.6 1.334 1.333 1.334s1.334-.6 1.334-1.334V26.92A11.992 11.992 0 0 0 27.92 16.333h1.413c.734 0 1.334-.6 1.334-1.333s-.6-1.333-1.334-1.333H27.92ZM16 24.333A9.327 9.327 0 0 1 6.667 15 9.327 9.327 0 0 1 16 5.667 9.326 9.326 0 0 1 25.334 15 9.326 9.326 0 0 1 16 24.333Z" fill="url(#b)"/></g><defs><linearGradient id="b" x1="16" y1=".333" x2="16" y2="29.667" gradientUnits="userSpaceOnUse"><stop stop-color="#FFBF00"/><stop offset="1" stop-color="#F2A60C"/></linearGradient><clipPath id="a"><path fill="#fff" d="M0 0h32v32H0z"/></clipPath></defs></svg>