<svg width="32" height="32" fill="none" xmlns="http://www.w3.org/2000/svg"><g clip-path="url(#a)"><path d="M25 10.667h-1.333V8A6.669 6.669 0 0 0 17 1.333 6.67 6.67 0 0 0 10.334 8v2.667H9a2.675 2.675 0 0 0-2.667 2.666v13.334c0 1.466 1.2 2.666 2.667 2.666h16c1.467 0 2.667-1.2 2.667-2.666V13.333c0-1.466-1.2-2.666-2.667-2.666Zm-8 12A2.674 2.674 0 0 1 14.334 20c0-1.467 1.2-2.667 2.666-2.667 1.467 0 2.667 1.2 2.667 2.667 0 1.467-1.2 2.667-2.667 2.667Zm-4-12V8c0-2.213 1.787-4 4-4s4 1.787 4 4v2.667h-8Z" fill="url(#b)"/></g><defs><linearGradient id="b" x1="17" y1="1.333" x2="17" y2="29.333" gradientUnits="userSpaceOnUse"><stop stop-color="#FFBF00"/><stop offset="1" stop-color="#F2A60C"/></linearGradient><clipPath id="a"><path fill="#fff" d="M0 0h32v32H0z"/></clipPath></defs></svg>