<svg width="17" height="17" fill="none" xmlns="http://www.w3.org/2000/svg"><path d="m15.334 11.593-2.404-.274a1.882 1.882 0 0 0-1.551.539l-1.742 1.74A14.238 14.238 0 0 1 3.4 7.364l1.75-1.75c.408-.407.607-.975.54-1.553l-.274-2.385A1.894 1.894 0 0 0 3.533 0H1.896C.826 0-.062.89.003 1.959c.502 8.082 6.965 14.536 15.038 15.038 1.069.065 1.959-.824 1.959-1.893v-1.637a1.876 1.876 0 0 0-1.666-1.874Z" fill="url(#a)"/><defs><linearGradient id="a" x1="8.5" y1="0" x2="8.5" y2="17" gradientUnits="userSpaceOnUse"><stop stop-color="#FFBF00"/><stop offset="1" stop-color="#F2A60C"/></linearGradient></defs></svg>