<svg width="32" height="32" fill="none" xmlns="http://www.w3.org/2000/svg"><g clip-path="url(#a)"><path d="M26.947 14.333a1.333 1.333 0 0 0-.094 1.334c.331.772.564 1.582.694 2.413a10.667 10.667 0 0 1-.92 6.307 1.333 1.333 0 0 1-1.187.706H8.573a1.333 1.333 0 0 1-1.186-.72A10.667 10.667 0 0 1 18.333 9.08c.969.114 1.916.365 2.814.747a1.334 1.334 0 0 0 1.333-.094 1.333 1.333 0 0 0-.227-2.346A13.333 13.333 0 0 0 5.467 26.333a2.666 2.666 0 0 0 2.293 1.334h18.467a2.668 2.668 0 0 0 2.32-1.334 13.333 13.333 0 0 0 .733-11.853 1.333 1.333 0 0 0-2.333-.147Z" fill="url(#b)"/><path d="M15.12 17.787a2.668 2.668 0 1 0 3.773 3.773l7.547-11.32-11.32 7.547Z" fill="url(#c)"/></g><defs><linearGradient id="b" x1="16.998" y1="6.308" x2="16.998" y2="27.667" gradientUnits="userSpaceOnUse"><stop stop-color="#FFBF00"/><stop offset="1" stop-color="#F2A60C"/></linearGradient><linearGradient id="c" x1="20.389" y1="10.24" x2="20.389" y2="22.341" gradientUnits="userSpaceOnUse"><stop stop-color="#FFBF00"/><stop offset="1" stop-color="#F2A60C"/></linearGradient><clipPath id="a"><path fill="#fff" d="M0 0h32v32H0z"/></clipPath></defs></svg>