<svg width="176" height="48" fill="none" xmlns="http://www.w3.org/2000/svg"><path d="M14.324 28.72v6.425c0 3.212-1.408 4.37-3.646 4.37s-3.644-1.158-3.644-4.37V10.858c0-3.212 1.408-4.434 3.645-4.434 2.238 0 3.645 1.222 3.645 4.434v4.82h6.65v-4.37C20.974 4.112 17.393 0 10.487 0 3.58 0 0 4.112 0 11.308v23.387c0 7.196 3.58 11.31 10.487 11.31 6.906 0 10.487-4.114 10.487-11.31V28.72h-6.65ZM40.86.514l7.162 44.976h-7.098l-1.216-8.16h-8.631l-1.216 8.16h-6.458L30.566.514h10.295Zm-5.563 7.967-3.325 22.745h6.777L35.426 8.48H35.3Zm37.855 37.01h-7.162c-.383-1.158-.64-1.865-.64-5.527v-7.068c0-4.176-1.406-5.718-4.603-5.718h-2.43V45.49h-7.034V.514h10.615c7.29 0 10.422 3.406 10.422 10.345v3.533c0 4.626-1.47 7.582-4.604 9.06 3.518 1.605 4.668 4.946 4.668 9.638v6.938c0 2.186.064 3.79.767 5.462h.001ZM61.707 6.938h-3.39v13.815h2.75c2.622 0 4.22-1.156 4.22-4.755v-4.434c0-3.212-1.086-4.625-3.58-4.625v-.001ZM94.59.514l7.162 44.976h-7.098l-1.214-8.16h-8.633l-1.215 8.16h-6.459L84.295.514h10.296-.001Zm-5.563 7.967-3.325 22.745h6.779L89.155 8.48h-.128ZM108.26.514h-7.098l6.906 44.976h10.487L125.459.514h-6.458L113.693 37.2h-.128L108.259.514Zm34.066 0 7.162 44.976h-7.098l-1.214-8.16h-8.633l-1.216 8.16h-6.458L132.03.514h10.295Zm-5.563 7.967-3.325 22.745h6.778L136.89 8.48h-.128Zm32.012 37.01H176V.513h-6.267v26.92h-.128L162.507.514h-8.824V45.49h6.331V12.913h.127l8.633 32.577Z" fill="#9C9C9C"/></svg>