<svg width="186" height="47" fill="none" xmlns="http://www.w3.org/2000/svg"><path fill-rule="evenodd" clip-rule="evenodd" d="M28.174 20.306H31.5c3.436 0 5.292 3.968 3.054 6.538l-3.255 3.736a8.881 8.881 0 0 0 3.327 5.61 9.162 9.162 0 0 0 6.316 1.897 9.121 9.121 0 0 0 5.947-2.825 8.832 8.832 0 0 0 2.417-6.046c0-.39.077-.777.229-1.137.151-.36.374-.689.654-.964a3.051 3.051 0 0 1 2.134-.868c.8 0 1.567.313 2.133.87.566.556.885 1.311.886 2.099 0 3.116-.997 6.153-2.849 8.68a15.047 15.047 0 0 1-5.305 4.5 15.297 15.297 0 0 1-6.796 1.66 15.303 15.303 0 0 1-6.826-1.533 15.06 15.06 0 0 1-5.39-4.4 15.06 15.06 0 0 1-5.392 4.4 15.303 15.303 0 0 1-6.826 1.534 15.297 15.297 0 0 1-6.796-1.661 15.047 15.047 0 0 1-5.305-4.5 14.683 14.683 0 0 1-2.85-8.68 2.929 2.929 0 0 1 .884-2.102 3.053 3.053 0 0 1 2.135-.868c.8 0 1.567.314 2.133.87.566.557.884 1.312.886 2.1a8.828 8.828 0 0 0 2.405 6.06 9.086 9.086 0 0 0 4.288 2.553 9.194 9.194 0 0 0 5.01-.081 9.075 9.075 0 0 0 4.199-2.691 8.864 8.864 0 0 0 2.105-4.478l-3.257-3.736c-2.237-2.57-.382-6.535 3.059-6.535h3.321v-.002Z" fill="#9C9C9C"/><path d="M42.26 12.389c.792 0 1.577-.153 2.31-.45a6.042 6.042 0 0 0 1.958-1.288 5.935 5.935 0 0 0 1.31-1.927 5.861 5.861 0 0 0 0-4.548 5.935 5.935 0 0 0-1.31-1.927A6.04 6.04 0 0 0 44.57.962 6.114 6.114 0 0 0 42.26.51c-.792 0-1.577.153-2.31.451a6.04 6.04 0 0 0-1.957 1.287 5.936 5.936 0 0 0-1.31 1.927 5.866 5.866 0 0 0-.46 2.274c0 .78.157 1.553.46 2.274.304.72.75 1.375 1.31 1.927.56.551 1.226.989 1.958 1.287a6.111 6.111 0 0 0 2.309.45Zm-28.173 0c.792 0 1.577-.153 2.31-.451a6.039 6.039 0 0 0 1.957-1.287 5.937 5.937 0 0 0 1.31-1.927 5.864 5.864 0 0 0 0-4.547 5.936 5.936 0 0 0-1.31-1.928A6.04 6.04 0 0 0 16.396.962a6.114 6.114 0 0 0-2.309-.451c-.792 0-1.577.152-2.31.45A6.04 6.04 0 0 0 9.82 2.25a5.936 5.936 0 0 0-1.31 1.927 5.863 5.863 0 0 0-.46 2.274c0 .78.157 1.553.46 2.274.304.72.75 1.376 1.31 1.927.56.552 1.226.989 1.958 1.287a6.114 6.114 0 0 0 2.31.45ZM97.216 1.962c.93 0 1.693.261 2.29.785.598.523.896 1.21.896 2.06v29.327c0 .883-.281 1.586-.847 2.109-.563.523-1.31.785-2.239.785-.93 0-1.677-.262-2.242-.784-.564-.524-.847-1.227-.847-2.109v-1.227c-.73 1.34-1.792 2.387-3.187 3.139-1.361.752-2.921 1.128-4.68 1.128-2.093 0-3.968-.523-5.627-1.57-1.628-1.045-2.905-2.517-3.835-4.414-.897-1.928-1.345-4.135-1.345-6.62 0-2.485.448-4.659 1.345-6.523.93-1.863 2.207-3.302 3.835-4.316 1.626-1.013 3.502-1.52 5.626-1.52 1.76 0 3.32.36 4.682 1.08a7.544 7.544 0 0 1 3.136 3.04V4.708c0-.817.266-1.471.797-1.962.565-.523 1.312-.784 2.242-.784Zm-9.213 30.456c1.992 0 3.519-.67 4.581-2.011 1.095-1.34 1.643-3.254 1.643-5.738 0-2.485-.548-4.382-1.643-5.688-1.062-1.341-2.572-2.013-4.531-2.013-1.992 0-3.537.655-4.632 1.963-1.095 1.308-1.643 3.188-1.643 5.64 0 2.485.548 4.414 1.643 5.787 1.095 1.374 2.622 2.06 4.581 2.06Zm29.908 4.757c-2.489 0-4.681-.507-6.573-1.52-1.86-1.014-3.304-2.468-4.333-4.365-1.029-1.897-1.544-4.104-1.544-6.621 0-2.518.514-4.708 1.544-6.572 1.029-1.896 2.473-3.351 4.332-4.365 1.893-1.013 4.085-1.52 6.574-1.52 2.49 0 4.664.506 6.523 1.52a10.253 10.253 0 0 1 4.333 4.365c1.029 1.864 1.544 4.054 1.544 6.572 0 2.519-.515 4.724-1.544 6.621a10.253 10.253 0 0 1-4.333 4.365c-1.859 1.012-4.033 1.52-6.522 1.52h-.001Zm-.049-4.757c2.025 0 3.568-.654 4.63-1.962 1.063-1.308 1.595-3.237 1.595-5.787 0-2.518-.532-4.43-1.595-5.738-1.062-1.34-2.589-2.011-4.581-2.011-1.991 0-3.537.67-4.631 2.011-1.062 1.308-1.594 3.22-1.594 5.738 0 2.55.531 4.48 1.594 5.787 1.062 1.308 2.589 1.962 4.582 1.962Zm38.204-20.108c.93 0 1.677.262 2.241.784.565.524.847 1.227.847 2.109v19.372c0 3.76-1.063 6.604-3.187 8.535-2.125 1.928-5.262 2.892-9.412 2.892-3.619 0-6.64-.669-9.063-2.01-1.229-.72-1.843-1.586-1.843-2.6 0-.719.167-1.29.498-1.716.365-.425.83-.638 1.394-.638.3 0 .664.066 1.096.197.431.163.88.344 1.344.54a29.85 29.85 0 0 0 3.188 1.127c.963.262 2.058.393 3.286.393 4.349 0 6.524-2.092 6.524-6.279v-3.138c-.731 1.341-1.793 2.386-3.187 3.14-1.395.719-2.988 1.078-4.78 1.078-2.126 0-4.018-.49-5.678-1.47-1.627-1.015-2.904-2.42-3.834-4.218-.93-1.8-1.395-3.875-1.395-6.23 0-2.353.449-4.43 1.345-6.228.93-1.831 2.224-3.237 3.884-4.218 1.66-1.013 3.552-1.52 5.678-1.52 1.792 0 3.385.376 4.78 1.128a7.4 7.4 0 0 1 3.187 3.09v-1.275c0-.85.283-1.537.847-2.061.564-.522 1.311-.784 2.24-.784Zm-9.411 19.03c1.992 0 3.535-.64 4.63-1.913 1.13-1.276 1.694-3.025 1.694-5.248 0-2.256-.564-4.022-1.694-5.297-1.095-1.275-2.638-1.913-4.63-1.913-1.959 0-3.503.638-4.632 1.913-1.128 1.275-1.693 3.04-1.693 5.296 0 2.224.565 3.973 1.693 5.249 1.129 1.275 2.673 1.912 4.632 1.912Zm27.76 5.835c-3.618 0-6.539-.703-8.764-2.11-1.062-.62-1.593-1.503-1.593-2.647 0-.654.182-1.177.547-1.57.366-.424.814-.638 1.345-.638.564 0 1.345.263 2.341.786 1.062.49 2.025.866 2.888 1.128.897.261 2.025.392 3.386.392 1.395 0 2.474-.23 3.238-.687.796-.458 1.194-1.095 1.194-1.913 0-.554-.165-.997-.498-1.323-.299-.328-.863-.622-1.692-.884-.798-.293-2.026-.62-3.686-.98-2.954-.588-5.08-1.422-6.374-2.501-1.262-1.079-1.892-2.567-1.892-4.463 0-1.439.431-2.73 1.294-3.875.863-1.177 2.042-2.076 3.536-2.697 1.527-.654 3.253-.981 5.178-.981 1.395 0 2.74.18 4.035.54 1.235.301 2.412.797 3.486 1.47 1.062.654 1.593 1.52 1.593 2.6 0 .654-.182 1.21-.548 1.667-.365.425-.814.639-1.345.639a3.25 3.25 0 0 1-1.095-.197c-.437-.219-.869-.448-1.295-.687-.963-.49-1.792-.85-2.49-1.078-.697-.262-1.56-.393-2.589-.393-1.229 0-2.208.246-2.938.735-.698.49-1.046 1.162-1.046 2.012 0 .817.365 1.438 1.096 1.863.731.425 2.141.85 4.233 1.276 2.224.458 3.967.98 5.229 1.569 1.261.588 2.157 1.324 2.688 2.206.565.884.847 2.012.847 3.384 0 2.224-.946 4.006-2.838 5.346-1.86 1.34-4.35 2.01-7.471 2.01Z" fill="#9C9C9C"/></svg>