<svg width="206" height="48" fill="none" xmlns="http://www.w3.org/2000/svg"><path d="M3.376 37.986c-1.02 0-1.846-.319-2.48-.955C.3 36.394 0 35.563 0 34.537V3.501C0 2.476.281 1.68.844 1.114 1.442.548 2.251.265 3.271.265h18.517c2.146 0 3.218.92 3.218 2.759 0 1.804-1.072 2.706-3.218 2.706H6.7v10.186h14.033c2.146 0 3.218.92 3.218 2.758 0 1.804-1.072 2.706-3.218 2.706H6.7v13.157c0 1.026-.299 1.857-.897 2.494-.598.636-1.407.955-2.427.955Zm31.309 0c-.95 0-1.741-.266-2.374-.796-.598-.566-.897-1.362-.897-2.387V3.13c0-1.026.299-1.804.897-2.334C32.944.266 33.735 0 34.685 0c.95 0 1.74.265 2.374.796.633.53.95 1.308.95 2.334v31.672c0 1.026-.317 1.822-.95 2.388-.633.53-1.425.796-2.374.796Zm30.54-7.428c.598 0 1.073.23 1.425.69.387.46.58 1.079.58 1.857 0 1.096-.65 2.016-1.952 2.759-1.196.672-2.55 1.22-4.062 1.644-1.512.39-2.954.584-4.326.584-4.15 0-7.439-1.203-9.865-3.608-2.427-2.405-3.64-5.694-3.64-9.868 0-2.652.527-5.004 1.582-7.056 1.055-2.05 2.532-3.642 4.431-4.774 1.935-1.132 4.115-1.698 6.542-1.698 2.322 0 4.344.513 6.067 1.539 1.724 1.025 3.06 2.475 4.01 4.35.95 1.874 1.424 4.085 1.424 6.631 0 1.521-.668 2.282-2.005 2.282H49.873c.211 2.44.897 4.244 2.058 5.411C53.09 32.433 54.78 33 56.995 33c1.126 0 2.11-.142 2.955-.425a27.98 27.98 0 0 0 2.954-1.167c1.055-.566 1.829-.849 2.321-.849Zm-9.128-14.801c-1.793 0-3.235.566-4.326 1.697-1.055 1.132-1.688 2.76-1.899 4.881h11.923c-.07-2.157-.598-3.784-1.583-4.88-.985-1.132-2.356-1.698-4.115-1.698Zm38.591 17.03c.633.636.95 1.361.95 2.175 0 .778-.299 1.485-.897 2.122-.598.601-1.301.902-2.11.902-.88 0-1.635-.372-2.269-1.114l-7.438-8.277-7.439 8.277c-.668.707-1.424 1.06-2.268 1.06-.774 0-1.46-.3-2.058-.901-.598-.602-.897-1.291-.897-2.07 0-.813.317-1.538.95-2.175l7.702-8.435-7.28-7.958c-.633-.636-.95-1.361-.95-2.175 0-.813.3-1.503.897-2.069.598-.601 1.284-.902 2.058-.902.844 0 1.6.354 2.268 1.061l7.017 7.746 7.016-7.746c.669-.707 1.425-1.06 2.269-1.06.809 0 1.495.3 2.057.901.598.566.897 1.256.897 2.07 0 .813-.316 1.538-.95 2.174l-7.28 7.958 7.755 8.435Zm29.187-14.43c2.146.6 3.799 1.697 4.959 3.288 1.196 1.592 1.794 3.537 1.794 5.836 0 3.183-1.143 5.677-3.429 7.48-2.251 1.805-5.364 2.706-9.338 2.706H104.25c-1.02 0-1.829-.283-2.427-.849-.563-.565-.844-1.361-.844-2.387V3.501c0-1.025.281-1.821.844-2.387.598-.566 1.407-.849 2.427-.849h13.082c3.869 0 6.894.867 9.074 2.6 2.216 1.698 3.324 4.085 3.324 7.162 0 1.98-.528 3.696-1.583 5.146-1.02 1.45-2.444 2.511-4.273 3.183h.001Zm-16.249-2.335h8.599c4.678 0 7.017-1.75 7.017-5.252 0-1.769-.58-3.077-1.741-3.926-1.161-.85-2.919-1.273-5.276-1.273h-8.599v10.45Zm9.496 16.34c2.462 0 4.256-.442 5.381-1.326 1.126-.884 1.689-2.264 1.689-4.138 0-1.875-.581-3.272-1.741-4.192-1.126-.92-2.902-1.379-5.329-1.379h-9.496v11.035h9.496Zm22.56 5.624c-.95 0-1.741-.266-2.374-.796-.598-.566-.897-1.362-.897-2.387V3.13c0-1.026.299-1.804.897-2.334.633-.53 1.424-.796 2.374-.796.949 0 1.741.265 2.374.796.633.53.949 1.308.949 2.334v31.672c0 1.026-.316 1.822-.949 2.388-.633.53-1.425.796-2.374.796Zm21.889.106c-2.638 0-4.96-.548-6.964-1.645-1.97-1.096-3.5-2.67-4.59-4.722-1.09-2.05-1.635-4.438-1.635-7.162 0-2.723.545-5.093 1.635-7.109 1.09-2.051 2.62-3.625 4.59-4.721 2.004-1.097 4.326-1.645 6.964-1.645 2.637 0 4.941.548 6.911 1.645a10.98 10.98 0 0 1 4.589 4.721c1.091 2.016 1.636 4.386 1.636 7.11 0 2.723-.545 5.11-1.636 7.162a10.98 10.98 0 0 1-4.589 4.721c-1.97 1.097-4.274 1.645-6.911 1.645Zm-.053-5.146c2.145 0 3.781-.708 4.906-2.122 1.126-1.415 1.688-3.502 1.688-6.26 0-2.724-.562-4.793-1.688-6.208-1.125-1.45-2.743-2.175-4.853-2.175-2.111 0-3.746.725-4.907 2.175-1.125 1.415-1.688 3.484-1.688 6.207 0 2.76.563 4.846 1.688 6.26 1.126 1.415 2.744 2.123 4.854 2.123Zm40.474-21.752c.985 0 1.776.283 2.374.849.598.566.897 1.326.897 2.281V35.28c0 4.067-1.126 7.144-3.377 9.231-2.251 2.087-5.574 3.13-9.971 3.13-3.833 0-7.034-.725-9.601-2.175-1.302-.778-1.952-1.715-1.952-2.812 0-.778.176-1.397.527-1.857.387-.46.88-.69 1.478-.69.316 0 .703.072 1.16.213.457.177.932.371 1.425.584 1.266.53 2.391.937 3.376 1.22 1.02.283 2.181.424 3.482.424 4.607 0 6.911-2.263 6.911-6.79v-3.396c-.774 1.45-1.899 2.582-3.376 3.395-1.478.779-3.166 1.168-5.065 1.168-2.251 0-4.256-.53-6.014-1.592-1.724-1.096-3.078-2.617-4.062-4.563-.985-1.945-1.478-4.19-1.478-6.737 0-2.547.475-4.793 1.425-6.738.985-1.98 2.356-3.501 4.115-4.562 1.758-1.097 3.763-1.645 6.014-1.645 1.899 0 3.587.407 5.065 1.22a7.92 7.92 0 0 1 3.376 3.342v-1.379c0-.92.299-1.662.897-2.228.598-.566 1.389-.849 2.374-.849Zm-9.971 20.584c2.11 0 3.746-.69 4.906-2.069 1.196-1.379 1.794-3.271 1.794-5.676 0-2.44-.598-4.35-1.794-5.73-1.16-1.38-2.796-2.069-4.906-2.069-2.075 0-3.711.69-4.906 2.07-1.196 1.379-1.794 3.288-1.794 5.729 0 2.405.598 4.297 1.794 5.676 1.195 1.38 2.831 2.07 4.906 2.07Z" fill="#9C9C9C"/></svg>