<svg width="169" height="60" fill="none" xmlns="http://www.w3.org/2000/svg"><path d="m30.289 12.94-5.596 33.958h-8.039l2.043-12.261h-8.66l-2 12.261H0l5.64-33.957h7.994l-2.397 14.337h8.659l2.4-14.337h7.994-.001Zm16.487 33.958.268-7.404h-7.416l-2.177 7.404h-8.483l11.415-33.957h14.654l.179 33.957H46.776Zm-1.82-25.704-3.507 11.98h5.818l.487-11.978h-2.798v-.002Zm44.751-8.253-5.596 33.957h-8.04l-5.593-18.58-3.02 18.582h-8.04l5.64-33.96h8.26l5.508 17.358L81.71 12.94h7.996Zm18.755 0c3.878 0 6.646 1.038 8.304 3.113 1.214 1.572 1.82 3.537 1.82 5.895 0 .85-.073 1.745-.22 2.688l-1.733 10.518c-.592 3.552-2.044 6.399-4.353 8.537-2.31 2.138-5.299 3.206-8.972 3.206H90.385l5.641-33.957h12.436Zm-2.799 7.358h-2.887L99.624 39.54h4.219c1.39 0 2.471-.394 3.241-1.178.8-.819 1.347-2.139 1.641-3.962l1.29-7.735a11.29 11.29 0 0 0 .178-1.887c0-2.988-1.509-4.48-4.53-4.48v.001Zm36.725 26.6h-22.295l5.643-33.958h22.295l-1.244 7.358h-14.301l-1.021 6.367h11.813l-1.243 7.356h-11.814l-.887 5.52h14.3l-1.245 7.356h-.001Zm25.368 0h-20.252l5.642-33.958h7.994l-4.397 26.6H169l-1.244 7.357Zm-78.428 6.043h77.257L164.172 60H86.915l2.413-7.058ZM8.45 0h84.5l-2.415 7.058h-84.5L8.45 0Z" fill="#9C9C9C"/></svg>