<svg width="254" height="49" fill="none" xmlns="http://www.w3.org/2000/svg"><g clip-path="url(#a)"><path fill-rule="evenodd" clip-rule="evenodd" d="M17.017 43.171a1.081 1.081 0 0 1-.837-.41 2.88 2.88 0 0 1-.55-1.23 16.365 16.365 0 0 1-.305-1.721 20.36 20.36 0 0 1-.129-2.244c-.025-1.647-.02-3.294.017-4.94.022-1.011.032-1.8.032-2.37V11.432c0-.927.006-1.632.017-2.116.011-.484.049-1.032.111-1.642.037-.454.117-.904.243-1.342.122-.339.285-.661.483-.964.183-.316.449-.578.773-.757.376-.184.763-.347 1.158-.49a7.854 7.854 0 0 1 1.577-.395 47.41 47.41 0 0 1 2.11-.253v-1.74l-.55-.537H1.724l-.515.538v1.484c3.263.19 5.087 1.096 5.473 2.717.225 1.368.332 2.752.323 4.137v28.835a28.343 28.343 0 0 1-.195 4.485c-.089.232-.22.445-.385.631-.25.291-.512.57-.788.837-.219.207-.428.423-.628.648v1.105c16.592 0 26.862.105 30.81.317l1.386-4.58-.87-.601a197.382 197.382 0 0 1-19.317 1.422h-.001v.001Zm30.841-13.2a.907.907 0 0 1-.193.03c-.32 0-.482-.115-.482-.346.001-1.047.082-2.093.242-3.128.18-1.128.482-2.235.901-3.3.404-1.08.957-2.1 1.645-3.032a7.696 7.696 0 0 1 2.763-2.24 7.87 7.87 0 0 1 3.499-.776 5.146 5.146 0 0 1 2.532.51 5.021 5.021 0 0 1 1.942 1.67 8.539 8.539 0 0 1 1.514 4.99c-.004.325-.11.641-.302.906a1.632 1.632 0 0 1-.777.578 53.392 53.392 0 0 1-5.393 1.8c-2.573.742-5.137 1.51-7.693 2.307a.911.911 0 0 0-.198.03Zm19.124 9.853c-3.865 2.294-7.203 3.442-10.011 3.442a9.298 9.298 0 0 1-5.345-1.548 9.423 9.423 0 0 1-3.365-3.869 11.727 11.727 0 0 1-1.078-5.005c14.037-4.273 21.12-6.412 21.248-6.412a2.386 2.386 0 0 0 1.404-.855c.348-.44.524-.988.495-1.544a8.852 8.852 0 0 0-1.078-4.453 7.78 7.78 0 0 0-2.914-2.953 14.292 14.292 0 0 0-3.976-1.548 20.728 20.728 0 0 0-4.622-.49 19.858 19.858 0 0 0-8.111 1.595 15.526 15.526 0 0 0-5.81 4.264 19.273 19.273 0 0 0-3.365 6.001 21.047 21.047 0 0 0-1.16 6.964c0 4.864 1.344 8.507 4.025 10.928 2.425 2.211 5.85 3.316 10.27 3.316 2.535-.026 5.03-.62 7.293-1.737a56.551 56.551 0 0 0 7.807-4.613l-.705-1.229-1.001-.254h-.001Zm43.362-33.302A9.303 9.303 0 0 0 105.61 1.5a20.366 20.366 0 0 0-8.53-1.516 25.57 25.57 0 0 0-6.326.758 19.474 19.474 0 0 0-5.442 2.274 11.038 11.038 0 0 0-3.911 4.124 12.104 12.104 0 0 0-1.45 5.984 9.018 9.018 0 0 0 1.079 4.278 11.986 11.986 0 0 0 2.705 3.46 32.792 32.792 0 0 0 3.797 2.827 44.462 44.462 0 0 0 4.155 2.4 72.501 72.501 0 0 1 3.96 2.148c1.075.595 2.083 1.3 3.01 2.1 2.381 2.17 3.573 4.232 3.573 6.19a7.46 7.46 0 0 1-.653 3.023 7.619 7.619 0 0 1-1.826 2.52 8.156 8.156 0 0 1-2.723 1.809 8.302 8.302 0 0 1-3.232.607 8.658 8.658 0 0 1-3.764-.743 8.48 8.48 0 0 1-3.045-2.289 10.274 10.274 0 0 1-2.623-6.919l-1.255-.442-6.406 7.043a14.913 14.913 0 0 0 5.764 4.849 17.213 17.213 0 0 0 7.565 1.69 24.42 24.42 0 0 0 7.051-1.075 26.292 26.292 0 0 0 6.504-2.922 15.556 15.556 0 0 0 4.779-4.673 10.797 10.797 0 0 0 1.852-6.017 9.172 9.172 0 0 0-.611-3.363 10.678 10.678 0 0 0-1.578-2.78 13.952 13.952 0 0 0-2.689-2.479 34.378 34.378 0 0 0-3.429-2.229 118.232 118.232 0 0 0-4.313-2.29 56.029 56.029 0 0 1-2.994-1.532 35.886 35.886 0 0 1-2.709-1.714 13.484 13.484 0 0 1-2.444-2.103 9.704 9.704 0 0 1-1.546-2.464 7.369 7.369 0 0 1-.644-3.048c-.02-.858.137-1.71.46-2.508a6.402 6.402 0 0 1 1.42-2.135 6.649 6.649 0 0 1 2.284-1.458 6.763 6.763 0 0 1 2.69-.436 7.864 7.864 0 0 1 3.32.582 7.718 7.718 0 0 1 2.75 1.912 10.935 10.935 0 0 1 2.752 6.033l1.127.347 6.28-4.801Zm31.307 12.112a6.447 6.447 0 0 0-2.414-2.368 11.773 11.773 0 0 0-3.187-1.216 16.671 16.671 0 0 0-3.654-.379 19.454 19.454 0 0 0-6.874 1.154 15 15 0 0 0-5.086 3.047 16.545 16.545 0 0 0-3.348 4.468 20.917 20.917 0 0 0-1.916 5.29 27.058 27.058 0 0 0-.579 5.653c-.007 1.614.226 3.22.691 4.766a14.08 14.08 0 0 0 2.076 4.186 9.536 9.536 0 0 0 3.785 3.032 12.91 12.91 0 0 0 5.52 1.12c6.032 0 11.698-2.6 16.999-7.8l-.644-.916-.804-.19c-3.928 2.97-7.556 4.454-10.882 4.454a7.834 7.834 0 0 1-3.589-.806 7.204 7.204 0 0 1-2.563-2.083 12.548 12.548 0 0 1-1.627-2.938 15.532 15.532 0 0 1-.917-3.236 19.782 19.782 0 0 1-.258-3.159c.008-1.344.126-2.685.355-4.01.252-1.476.63-2.928 1.127-4.343a9.03 9.03 0 0 1 2.286-3.665 4.937 4.937 0 0 1 1.622-1.068 5.028 5.028 0 0 1 1.919-.368 4.822 4.822 0 0 1 2.529.559 4.69 4.69 0 0 1 1.849 1.778 10.893 10.893 0 0 1 1.416 5.749l1.128.442 6.085-3.536a7.872 7.872 0 0 0-1.045-3.617Zm11.8 9.396c.164-1.24.45-2.462.854-3.647.37-1.153.895-2.252 1.561-3.269a7.395 7.395 0 0 1 2.496-2.29 6.987 6.987 0 0 1 3.557-.9 7.229 7.229 0 0 1 3.847.995 6.617 6.617 0 0 1 2.494 2.716 14.249 14.249 0 0 1 1.255 3.648c.264 1.362.395 2.749.387 4.137 0 1.264-.011 2.316-.033 3.158a37.984 37.984 0 0 1-.225 3.033 17.86 17.86 0 0 1-.531 2.937 14.898 14.898 0 0 1-.982 2.464 6.2 6.2 0 0 1-1.562 2.052 7.78 7.78 0 0 1-2.286 1.263 9.033 9.033 0 0 1-3.138.506 5.801 5.801 0 0 1-3.301-.98 7.306 7.306 0 0 1-2.301-2.416 14.726 14.726 0 0 1-1.384-3.3 21.553 21.553 0 0 1-.742-3.46 25.88 25.88 0 0 1-.193-3.047c0-1.203.075-2.405.227-3.6Zm-3.991 16.33c2.338 2.084 6.052 3.126 11.139 3.126 1.88.012 3.756-.2 5.585-.632a16.673 16.673 0 0 0 4.858-2.037 14.27 14.27 0 0 0 3.88-3.522 16.272 16.272 0 0 0 2.543-5.243c.65-2.282.964-4.642.935-7.01a12.91 12.91 0 0 0-1.062-5.561 13.15 13.15 0 0 0-3.349-4.61c-2.684-2.357-6.58-3.536-11.687-3.536-5.108 0-9.315 1.547-12.62 4.643a15.506 15.506 0 0 0-3.758 5.34 15.221 15.221 0 0 0-1.2 6.377c0 5.643 1.576 9.864 4.732 12.664h.004Zm50.382-25.015c1.717 0 2.94.338 3.671 1.012a5.47 5.47 0 0 1 1.238 2.844c.27 1.23.437 2.483.499 3.742.043 1.105.065 2.532.065 4.28a551.513 551.513 0 0 1-.048 6.806 63.49 63.49 0 0 0 .015 2.416c.006.691.049 1.382.13 2.068.064.454.15.949.257 1.484.075.45.227.881.451 1.279.193.317.43.605.706.854a5.048 5.048 0 0 0 3.54 1.263c1.61 0 3.456-.801 5.538-2.4a60.3 60.3 0 0 0 4.958-4.518l-.74-1.075h-.773a7.948 7.948 0 0 1-4.41 1.674 2.57 2.57 0 0 1-1.004-.144 2.527 2.527 0 0 1-.864-.52 2.471 2.471 0 0 1-.565-.614 4.483 4.483 0 0 1-.337-1.295 17.958 17.958 0 0 1-.161-2.732c0-.695.038-1.817.113-3.363.06-1.1.097-2.2.113-3.301v-1.896c.021-2.042.016-3.457-.016-4.248a29.29 29.29 0 0 0-.371-3.221 5.782 5.782 0 0 0-.998-2.811 6.695 6.695 0 0 0-1.996-1.452 7.13 7.13 0 0 0-3.284-.68c-3.777 0-8.156 1.516-13.135 4.548l-.773-.284a5.902 5.902 0 0 0-1.11-3.236c-.633-.813-1.723-1.217-3.267-1.217a8.964 8.964 0 0 0-2.721.458 13.27 13.27 0 0 0-2.899 1.357 43.996 43.996 0 0 0-2.544 1.675 76.563 76.563 0 0 0-2.495 1.879l1.191 1.547c.219-.139.439-.275.661-.41.374-.232.702-.42.981-.569.279-.147.612-.32.998-.52a6.905 6.905 0 0 1 1.08-.462c.284-.096.582-.15.884-.158.372-.008.74.084 1.062.27.327.21.574.521.706.883.161.383.3.771.418 1.168.131.534.207 1.08.225 1.628.044.717.07 1.295.079 1.736.009.441.014 1.105.015 1.99v.538c0 2.063-.161 8.38-.482 18.949l.805.442 7.244-2.053c-.215-.905-.376-3.758-.484-8.557-.106-4.695-.158-9.391-.156-14.087 3.734-1.98 6.395-2.969 7.984-2.969l.006.002Zm31.228 10.768a.863.863 0 0 1-.193.034c-.321 0-.482-.116-.483-.347.001-1.048.082-2.092.243-3.127.181-1.128.482-2.235.9-3.301.404-1.08.956-2.1 1.642-3.032a7.7 7.7 0 0 1 2.763-2.24 7.866 7.866 0 0 1 3.499-.777 5.145 5.145 0 0 1 2.532.51 5.021 5.021 0 0 1 1.943 1.67 8.532 8.532 0 0 1 1.513 4.99 1.587 1.587 0 0 1-.303.906 1.637 1.637 0 0 1-.776.578 53.497 53.497 0 0 1-5.391 1.801c-2.573.741-5.138 1.51-7.694 2.307a.965.965 0 0 0-.193.03h-.002v-.002Zm19.124 9.855c-3.865 2.296-7.203 3.444-10.013 3.442a9.31 9.31 0 0 1-5.345-1.546 9.433 9.433 0 0 1-3.363-3.869 11.733 11.733 0 0 1-1.079-5.007c14.037-4.273 21.12-6.41 21.249-6.41a2.387 2.387 0 0 0 1.404-.856c.348-.44.524-.988.495-1.545a8.856 8.856 0 0 0-1.078-4.453 7.788 7.788 0 0 0-2.914-2.953 14.304 14.304 0 0 0-3.976-1.548 20.715 20.715 0 0 0-4.623-.49 19.854 19.854 0 0 0-8.109 1.596 15.53 15.53 0 0 0-5.81 4.264 19.229 19.229 0 0 0-3.364 6 20.998 20.998 0 0 0-1.159 6.965c0 4.864 1.341 8.505 4.024 10.928 2.425 2.211 5.848 3.315 10.27 3.315a16.867 16.867 0 0 0 7.292-1.736 56.715 56.715 0 0 0 7.807-4.612l-.705-1.23-1.003-.255Z" fill="#9C9C9C"/></g><defs><clipPath id="a"><path fill="#fff" d="M0 0h254v49H0z"/></clipPath></defs></svg>