<svg width="186" height="45" fill="none" xmlns="http://www.w3.org/2000/svg"><path d="M61.403 45V0H50.068l-23.7 34.724-4.001-5.048c7.153-1.094 11.153-7.419 11.153-14.169 0-6.446-3.516-11.858-8.244-13.925C22.913.548 19.396 0 14.73 0H0v45h10.971V30.468h.122L21.458 45h11.577l3.94-6.507h12.972V45h11.456ZM10.971 22.623V10.095h4.365c4.303 0 7.213 2.19 7.213 6.081 0 4.135-2.728 6.446-7.274 6.446h-4.304Zm38.976 6.75H42.43l7.395-12.466h.12v12.466Zm57.43 15.629V0H96.406l.485 28.459L79.434 0h-9.88v45h10.97l-.302-27.486 17.214 27.487h9.941Zm33.083 0V34.906h-13.941v-7.723h13.517V17.088h-13.517v-6.993h13.941V0h-24.912v45h24.912ZM186 45 170.179 22.44 185.03 0h-12.002L160.36 20.25h-.121V0h-11.457v45h11.457V25.542h.121l12.244 19.46H186Z" fill="#9C9C9C"/></svg>