<svg width="244" height="60" fill="none" xmlns="http://www.w3.org/2000/svg"><path d="M66.102 53.5c-4.036 0-7.13-.69-9.282-2.07-2.115-1.42-3.171-3.493-3.171-6.217 0-1.38.462-2.513 1.383-3.396.961-.92 2.192-1.38 3.69-1.38.884.038 1.556.267 2.018.69.462.384.693.748.693 1.094 0 .037-.193.172-.578.402-.384.231-.729.576-1.037 1.036-.308.462-.462 1.094-.462 1.9 0 1.803.54 3.204 1.615 4.202 1.115.959 2.825 1.438 5.13 1.438 1.577 0 2.96-.307 4.153-.92 1.191-.614 2.094-1.42 2.71-2.418.652-1.036.98-2.11.98-3.224 0-1.38-.404-2.57-1.211-3.567a9.485 9.485 0 0 0-2.883-2.475c-1.154-.69-2.73-1.478-4.728-2.36-2.306-1.036-4.17-1.976-5.591-2.82a12.03 12.03 0 0 1-3.635-3.339c-.998-1.42-1.497-3.165-1.497-5.238 0-3.337 1.133-5.832 3.4-7.481 2.308-1.65 5.325-2.475 9.053-2.475 2.92 0 5.457.614 7.61 1.842 2.192 1.227 3.287 3.031 3.287 5.409 0 1.382-.481 2.533-1.442 3.454-.922.883-2.133 1.324-3.632 1.324-.885-.039-1.557-.25-2.017-.633-.462-.422-.693-.806-.693-1.151 0-.04.25-.173.75-.404.538-.23.999-.575 1.383-1.036.423-.46.635-1.094.635-1.898 0-1.42-.557-2.534-1.672-3.34-1.077-.805-2.46-1.208-4.152-1.208-2.344 0-4.132.557-5.36 1.67-1.193 1.074-1.789 2.417-1.789 4.029 0 1.342.365 2.475 1.096 3.395.729.882 1.902 1.765 3.516 2.647 1.4.736 2.823 1.427 4.267 2.073 2.46 1.112 4.401 2.13 5.823 3.05a11.688 11.688 0 0 1 3.632 3.627c1 1.495 1.5 3.357 1.5 5.581 0 1.92-.615 3.665-1.845 5.24-1.191 1.533-2.826 2.742-4.901 3.624-2.037.883-4.286 1.325-6.746 1.325v-.001Zm29.188-.459c-2.613 0-4.689-.787-6.227-2.36-1.537-1.573-2.306-3.646-2.306-6.216V33.816c0-.996-.038-1.726-.115-2.186-.038-.46-.269-.863-.693-1.208-.422-.346-1.133-.518-2.132-.518-.462 0-.807-.058-1.038-.173-.231-.153-.345-.48-.345-.979a.98.98 0 0 1 .23-.631c.154-.231.385-.365.692-.404 2.422-.346 4.498-.845 6.226-1.498.539-.19.98-.306 1.327-.345h.172c.615 0 .924.365.924 1.094v17.44c0 1.764.557 3.127 1.671 4.086a5.888 5.888 0 0 0 3.863 1.38c1.806 0 3.343-.44 4.612-1.323 1.269-.882 2.115-1.765 2.537-2.647V33.818c0-.998-.038-1.726-.114-2.188-.039-.46-.27-.863-.693-1.208-.423-.346-1.134-.518-2.134-.518-.461 0-.807-.058-1.036-.173-.231-.153-.347-.48-.347-.979 0-.23.077-.44.231-.631.153-.231.384-.365.692-.404 2.421-.346 4.497-.845 6.227-1.498.537-.19.98-.306 1.325-.345h.174c.615 0 .922.365.922 1.094v19.915c0 2.265 1.518 3.397 4.555 3.397.653 0 .98.364.98 1.094 0 .536-.327.863-.98.977l-9.283.633c-.269 0-.423-.096-.462-.287-.037-.154-.057-.44-.057-.863V48.61h-.114a70.501 70.501 0 0 1-2.711 2.416c-.692.537-1.595.998-2.71 1.382-1.077.422-2.364.632-3.863.632v.001Zm23.334-.517a.875.875 0 0 1-.693-.347 1.42 1.42 0 0 1-.231-.804c.039-.499.155-.788.347-.864.193-.115.538-.173 1.038-.173.999 0 1.71-.173 2.133-.518.423-.345.654-.749.692-1.208.077-.462.115-1.19.115-2.188v-13.18c0-.997-.038-1.726-.115-2.188-.038-.46-.269-.863-.692-1.207-.423-.346-1.134-.52-2.133-.52-.462 0-.807-.057-1.037-.172-.231-.153-.347-.479-.347-.979 0-.23.077-.44.231-.632.153-.23.384-.364.692-.403 2.498-.384 4.555-.883 6.169-1.497.654-.192 1.095-.307 1.326-.345h.173c.615 0 .922.365.922 1.094v3.568h.173c1.345-1.343 2.71-2.398 4.094-3.165 1.384-.806 2.633-1.209 3.747-1.209 1.269 0 2.268.48 2.999 1.438.768.922 1.152 1.996 1.152 3.224a4.575 4.575 0 0 1-.979 2.877c-.654.845-1.558 1.267-2.71 1.267a2.968 2.968 0 0 1-1.442-.346c-.384-.23-.595-.421-.634-.575.039-.076.231-.307.576-.691a2.2 2.2 0 0 0 .519-1.438c0-.692-.192-1.247-.576-1.67-.346-.422-.827-.632-1.442-.632-.652 0-1.479.325-2.478.978-1 .614-1.98 1.4-2.94 2.36v14.043c0 .998.037 1.726.114 2.188.078.459.327.863.75 1.208s1.134.518 2.133.518h.346c.308 0 .538.058.692.172.153.116.249.404.288.863 0 .308-.076.576-.231.806-.153.231-.384.347-.691.347-2.016-.11-4.035-.168-6.054-.174-1.73 0-3.728.058-5.996.172v.002Zm89.545.517c-2.613 0-4.939-.615-6.976-1.842-2.037-1.266-3.632-2.916-4.786-4.95a13.651 13.651 0 0 1-1.671-6.562c0-2.877.672-5.37 2.018-7.481 1.345-2.15 3.056-3.78 5.131-4.893 2.076-1.15 4.17-1.726 6.284-1.726 2.615 0 4.94.632 6.977 1.899a12.726 12.726 0 0 1 4.727 4.95 12.973 12.973 0 0 1 1.73 6.503c0 2.878-.692 5.392-2.075 7.54-1.345 2.111-3.056 3.741-5.132 4.892-2.075 1.114-4.151 1.67-6.227 1.67Zm0-2.13c2.615 0 4.517-1.113 5.708-3.338 1.23-2.225 1.845-5.103 1.845-8.633 0-3.3-.634-5.985-1.902-8.06-1.23-2.108-3.114-3.163-5.651-3.163-2.651 0-4.573 1.094-5.765 3.28-1.192 2.187-1.787 5.045-1.787 8.576 0 3.3.615 6.024 1.845 8.172 1.23 2.112 3.132 3.167 5.707 3.167Zm27.962 2.417c-1.884 0-3.498-.69-4.844-2.071-1.344-1.382-2.018-3.357-2.018-5.928V28.407l-3.343.116a.71.71 0 0 1-.577-.288 1.324 1.324 0 0 1-.231-.75c0-.344.059-.631.173-.862.154-.269.366-.422.635-.46 1.345-.268 2.383-.691 3.114-1.266.768-.615 1.326-1.267 1.671-1.957.347-.73.77-1.824 1.269-3.282.192-.498.615-.748 1.268-.748.269 0 .538.077.807.231.269.115.404.307.404.575l-.404 6.562 6.746-.404h.116c.499 0 .749.365.749 1.094 0 .422-.077.826-.231 1.208-.115.347-.269.52-.461.52l-6.457-.173v17.496c0 1.267.249 2.322.749 3.166.538.844 1.402 1.266 2.595 1.266 1.191 0 2.249-.211 3.17-.633.501-.192.807-.288.923-.288.269 0 .481.115.634.345.154.192.308.462.462.806a.65.65 0 0 1 .057.288c0 .153-.115.326-.346.518-1.115.73-2.171 1.21-3.17 1.439-.962.267-2.115.402-3.46.402Zm-93.188-1.15c.153.23.384.344.692.344 1.997-.11 3.996-.167 5.996-.172 2.576 0 4.978.058 7.207.172a.724.724 0 0 0 .635-.345c.153-.23.229-.498.229-.806-.037-.46-.133-.747-.288-.863-.115-.114-.345-.172-.691-.172h-.347c-1.268 0-2.171-.096-2.709-.288-.539-.191-.903-.538-1.096-1.036-.192-.537-.288-1.4-.288-2.59V28.52h6.112a.876.876 0 0 0 .692-.345c.192-.23.288-.498.288-.806-.039-.46-.155-.747-.347-.863-.153-.153-.403-.23-.748-.23h-5.997v-3.453c0-1.841.077-3.453.23-4.835a9.331 9.331 0 0 1 1.326-3.914c.731-1.19 1.865-1.784 3.403-1.784.176 0 .347.01.513.03a9.71 9.71 0 0 1 .126-1.926 9.775 9.775 0 0 0-.236-.003c-3.383.076-6.016 1.361-7.898 3.857-1.846 2.455-2.768 5.66-2.768 9.61v2.418h-3.46c-.499 0-.846.058-1.038.173-.192.077-.307.384-.345.92 0 .308.077.576.23.806a.93.93 0 0 0 .75.347h3.863v17.9c0 1.036-.039 1.784-.116 2.245-.037.422-.268.806-.691 1.15-.423.346-1.134.519-2.134.519-.499 0-.846.058-1.038.172-.153.077-.249.365-.288.863 0 .308.077.576.231.806Z" fill="#9C9C9C"/><path fill-rule="evenodd" clip-rule="evenodd" d="M173.763 11.992a6.41 6.41 0 0 1-.489 2.449 6.41 6.41 0 0 1-3.467 3.46 6.4 6.4 0 0 1-2.45.485 6.4 6.4 0 0 1-6.406-6.394 6.395 6.395 0 0 1 1.879-4.525 6.409 6.409 0 0 1 10.444 2.076c.323.776.489 1.609.489 2.45Zm-6.406 3.197a3.195 3.195 0 0 0 2.959-1.973 3.195 3.195 0 0 0-1.734-4.18 3.203 3.203 0 0 0-4.428 2.954 3.2 3.2 0 0 0 3.203 3.199Zm-2.808 5.98v30.837c0 .344.098.613.29.805.192.231.46.345.807.345.345 0 .633-.153.864-.46.231-.268.443-.671.635-1.209.192-.537.364-.959.519-1.266h.288c2.498 1.88 5.457 2.82 8.878 2.82 2.307 0 4.478-.614 6.515-1.842 2.038-1.227 3.652-2.896 4.844-5.008 1.229-2.148 1.844-4.507 1.844-7.078 0-2.61-.537-4.93-1.614-6.965-1.037-2.071-2.479-3.683-4.324-4.834-1.845-1.151-3.902-1.726-6.169-1.726-1.384 0-2.787.287-4.209.863-1.383.537-2.633 1.361-3.748 2.475h-.172v-7.653a9.703 9.703 0 0 1-5.248-.105Zm17.413 26.75c-1.422 2.11-3.306 3.166-5.65 3.166-1.23 0-2.325-.269-3.287-.806-.922-.537-1.672-1.17-2.248-1.9-.539-.767-.865-1.458-.98-2.071V31.114c1.652-1.766 3.689-2.649 6.112-2.649 2.728 0 4.784 1.075 6.168 3.224 1.384 2.11 2.075 4.661 2.075 7.654 0 3.569-.729 6.428-2.19 8.575ZM15.437.447a2.407 2.407 0 0 1 2.793 0c10.405 7.42 15.122 16.314 15.42 29.076.137 6.093-.45 11.672-2.238 16.492-1.836 4.823-5.097 9.278-9.898 13.041a2.407 2.407 0 0 1-2.14.414c-1.47-.422-1.721-2.163-2.54-3.247-.82 1.084-1.068 2.824-2.54 3.246a2.407 2.407 0 0 1-2.139-.414c-4.801-3.762-8.064-8.217-9.898-13.04C.47 41.195-.118 35.616.019 29.523.316 16.76 5.032 7.865 15.437.447Zm5.38 53.113c3.005-2.76 4.816-5.768 6.095-9.229 1.61-4.23 2.075-8.905 1.935-14.697-.231-9.951-2.565-16.426-9.63-22.438v17.586c2.762.71 4.002 3.416 4.002 6.394 0 2.98-1.24 5.686-4.003 6.396V51.96s1.284 1.183 1.601 1.6Zm-8.008 0c-3.005-2.76-4.773-5.768-6.053-9.229-1.61-4.23-2.074-8.905-1.933-14.697.23-9.93 2.551-16.434 9.588-22.438v17.586c-2.763.71-4.004 3.416-4.004 6.394 0 2.98 1.24 5.686 4.004 6.396V51.96s-1.296 1.197-1.602 1.6Zm4.004-25.581a3.2 3.2 0 0 0-3.203 3.197 3.2 3.2 0 0 0 3.203 3.198 3.2 3.2 0 0 0 3.203-3.197 3.2 3.2 0 0 0-3.203-3.197v-.001Z" fill="#9C9C9C"/></svg>