<svg width="247" height="42" fill="none" xmlns="http://www.w3.org/2000/svg"><path d="M27.276 40.71a8.956 8.956 0 0 1-4.26-.95 8.602 8.602 0 0 1-3.243-2.83 14.818 14.818 0 0 1-9.414 3.78c-6.285 0-9.691-4.28-8.54-10.415.874-4.612 4.787-9.235 5.88-12.945-2.116-1.245-5.26-2.113-6.732.432L0 17.215c.771-2.79 2.635-4.645 5.328-4.645 2.693 0 4.684 1.544 7.251.123h2.048c-1.092 5.556-3.855 10-5.328 17.78-.897 4.769.771 6.935 3.592 6.935a8.61 8.61 0 0 0 5.385-2.79 21.857 21.857 0 0 1-1.669-8.546c0-6.757 3.211-13.88 8.597-13.88 2.762 0 4.81 1.856 4.81 6.257 0 4.4-2.76 11.213-6.283 15.49a4.42 4.42 0 0 0 1.563 2.61 4.705 4.705 0 0 0 2.926 1.048c5.133 0 8.723-7.436 8.723-14.314s-3.084-6.568-2.82-8.89c.025-.29.107-.574.242-.833.136-.259.322-.489.549-.677a2.354 2.354 0 0 1 1.66-.535c1.601 0 3.706 1.955 3.706 9.891 0 10.112-5.57 18.47-13.005 18.47Zm-1.162-25.028c-1.6 0-3.143 5.7-3.338 11.59a24.386 24.386 0 0 0 .069 3.78 28.956 28.956 0 0 0 4.304-12.703c-.012-2.001-.391-2.668-1.036-2.668v.001Zm24.709 24.771a4.76 4.76 0 0 1-1.988-.223 4.63 4.63 0 0 1-1.7-1.016 4.434 4.434 0 0 1-1.095-1.617 4.304 4.304 0 0 1-.282-1.912c0-2.723 3.66-16.292 3.66-18.526 0-1.054-.252-1.677-1.219-1.677a5.65 5.65 0 0 0-2.89 1.366v-1.922a9.606 9.606 0 0 1 6.1-2.411 4.814 4.814 0 0 1 1.995.247 4.699 4.699 0 0 1 1.7 1.035c.481.46.854 1.015 1.091 1.63.236.613.331 1.27.277 1.921 0 2.723-3.658 16.237-3.658 18.46 0 1.056.252 1.678 1.22 1.678a6.104 6.104 0 0 0 2.888-1.3v1.855a9.475 9.475 0 0 1-6.1 2.412ZM55.31 1.234a3.57 3.57 0 0 1 1.463.264c.462.19.876.475 1.211.834.337.357.589.782.737 1.246.149.463.19.953.123 1.435a4.22 4.22 0 0 1-1.413 2.666 4.505 4.505 0 0 1-2.88 1.113 3.56 3.56 0 0 1-1.461-.265 3.454 3.454 0 0 1-1.212-.834 3.27 3.27 0 0 1-.737-1.245 3.225 3.225 0 0 1-.123-1.435 4.22 4.22 0 0 1 1.413-2.666 4.506 4.506 0 0 1 2.88-1.112v-.001ZM69.558 34.63c-.321 1.678-.126 2.845 1.094 2.845a5.847 5.847 0 0 0 2.888-1.3l.115 1.866a9.605 9.605 0 0 1-6.1 2.412c-3.982 0-5.523-2.789-4.936-6.256l3.913-21.504c1.301-7.18.851-8.125-3.131-8.125l.253-1.733 12.004-1.534-6.1 33.328v.001Zm33.756-.057c-.323 1.68-.197 2.913 1.093 2.913a6.173 6.173 0 0 0 2.889-1.367v1.922a9.38 9.38 0 0 1-6.099 2.412 4.718 4.718 0 0 1-3.19-.946 4.418 4.418 0 0 1-1.69-2.777 10.404 10.404 0 0 1-3.626 2.93 10.783 10.783 0 0 1-4.591 1.094c-7.63 0-10.842-6.502-9.369-14.315 1.473-7.812 8.343-14.191 16.112-14.191a11.12 11.12 0 0 1 5.283 1.21l.195-.988c1.52-7.646.818-7.902-3.164-7.902l.195-1.733 12.06-1.534-6.099 33.274.001-.002Zm-8.276-19.525c-4.43 0-7.376 5.079-8.539 11.335-1.22 6.568-.448 11.114 3.718 11.114 2.819 0 6.03-3.335 6.996-8.424l2.372-12.89a8.362 8.362 0 0 0-4.547-1.135Zm28.554 25.715c-8.92 0-11.359-6.2-10.266-12.146l2.911-15.924c1.348-7.19.899-8.18-3.083-8.18l.252-1.734 12.038-1.478-2.439 13.503a10.975 10.975 0 0 1 6.733-2.545c7.768 0 11.416 6.38 10.012 14.191-1.404 7.813-8.55 14.315-16.158 14.315v-.002Zm4.166-25.559a6.285 6.285 0 0 0-3.585 1.203 5.938 5.938 0 0 0-2.169 3.008l-1.796 10.002c-1.094 5.946 1.094 8.368 3.857 8.368 4.039 0 6.548-4.333 7.893-11.457 1.198-6.38.105-11.09-4.211-11.09l.011-.034Zm24.157 14.847c0 4.768 2.371 7.313 6.905 7.313 2.302 0 5.65-1.544 7.769-3.59l.897 1.978a16.603 16.603 0 0 1-5.377 3.666 17.084 17.084 0 0 1-6.431 1.357c-6.732 0-11.29-4.834-11.29-11.402 0-9.725 8.344-17.103 16.366-17.103 4.88 0 7.629 2.6 7.629 5.634-.056 4.712-4.682 10.003-16.468 12.147Zm8.275-14.936c-3.66 0-7.181 5.145-8.149 12.513 7.377-1.734 10.519-6.567 10.588-9.668-.011-1.733-.852-2.845-2.451-2.845h.012Zm34.377 25.338a4.721 4.721 0 0 1-3.19-.946 4.419 4.419 0 0 1-1.69-2.777 10.023 10.023 0 0 1-3.536 2.931 10.397 10.397 0 0 1-4.52 1.091c-7.504 0-10.715-6.5-9.207-14.313 1.507-7.812 8.263-14.181 16.055-14.181 1.651-.008 3.287.31 4.81.935h7.319l-3.924 21.38c-.323 1.68-.196 2.913 1.094 2.913a6.18 6.18 0 0 0 2.888-1.367v1.922a9.384 9.384 0 0 1-6.099 2.412Zm-5.904-25.405c-4.305 0-7.32 5.079-8.471 11.335-1.22 6.568-.38 11.114 3.453 11.114 2.946 0 6.099-3.467 6.997-8.424l2.371-12.89a7.638 7.638 0 0 0-4.339-1.135h-.011Zm34.399 4.523c-1.737 0-2.187-1.3-2.693-2.667a3.043 3.043 0 0 0-1.17-1.725 3.234 3.234 0 0 0-2.041-.609 3.91 3.91 0 0 0-2.625.833 3.66 3.66 0 0 0-1.357 2.323c-.195 1.68 1.093 3.101 3.532 5.145l3.269 2.6a8.144 8.144 0 0 1 2.728 3.46 7.845 7.845 0 0 1 .483 4.32c-.829 4.645-4.81 7.501-10.139 7.501-6.422 0-10.519-3.656-10.07-6.134a2.748 2.748 0 0 1 .961-1.678 2.94 2.94 0 0 1 1.859-.678c1.668 0 2.301 1.234 2.819 2.845.333.926.972 1.72 1.818 2.258.85.54 1.856.792 2.866.72a4.109 4.109 0 0 0 2.752-.887 3.845 3.845 0 0 0 1.414-2.446c.254-2.223-1.15-3.59-3.785-5.89l-3.211-2.723a7.812 7.812 0 0 1-2.556-3.22 7.533 7.533 0 0 1-.529-4.025c.576-2.978 3.453-6.668 10.07-6.668 5.133 0 8.344 2.789 8.057 5.022a2.408 2.408 0 0 1-.757 1.625c-.453.43-1.059.68-1.695.698Zm23.489-3.889h-6.226l-3.015 16.469c-.645 3.412-.127 4.957 1.795 4.957 1.024 0 2.635-.556 4.937-2.845l.126 2.412a11.162 11.162 0 0 1-3.799 2.816 11.541 11.541 0 0 1-4.671 1.028c-4.361 0-6.548-2.977-5.512-8.49l3.015-16.347h-4.868l.38-2.545h4.914l1.289-7.368h7.182l-1.347 7.367h6.226l-.426 2.545v.001Z" fill="#9C9C9C"/></svg>